<?xml version="1.0" encoding="UTF-8" standalone="no"?>
<svg
   xmlns:dc="http://purl.org/dc/elements/1.1/"
   xmlns:cc="http://creativecommons.org/ns#"
   xmlns:rdf="http://www.w3.org/1999/02/22-rdf-syntax-ns#"
   xmlns:svg="http://www.w3.org/2000/svg"
   xmlns="http://www.w3.org/2000/svg"
   xmlns:sodipodi="http://sodipodi.sourceforge.net/DTD/sodipodi-0.dtd"
   xmlns:inkscape="http://www.inkscape.org/namespaces/inkscape"
   height="16"
   width="16"
   version="1.1"
   id="svg2"
   inkscape:version="0.91 r13725"
   sodipodi:docname="bluetooth-applet-disabled-symbolic.svg">
  <metadata
     id="metadata10">
    <rdf:RDF>
      <cc:Work
         rdf:about="">
        <dc:format>image/svg+xml</dc:format>
        <dc:type
           rdf:resource="http://purl.org/dc/dcmitype/StillImage" />
      </cc:Work>
    </rdf:RDF>
  </metadata>
  <defs
     id="defs8" />
  <sodipodi:namedview
     pagecolor="#ffffff"
     bordercolor="#666666"
     borderopacity="1"
     objecttolerance="10"
     gridtolerance="10"
     guidetolerance="10"
     inkscape:pageopacity="0"
     inkscape:pageshadow="2"
     inkscape:window-width="1440"
     inkscape:window-height="847"
     id="namedview6"
     showgrid="false"
     inkscape:zoom="14.75"
     inkscape:cx="8"
     inkscape:cy="8"
     inkscape:window-x="0"
     inkscape:window-y="0"
     inkscape:window-maximized="1"
     inkscape:current-layer="svg2" />
  <path
     fill="#bebebe"
     d="m6.9161 0v6.4l-2.8623-2.7025-1.0253 0.9815 3.5031 3.308-3.5316 3.334 1.0396 0.968 2.8765-2.716v6.427l5.0839-4.8-3.4462-3.254 3.4322-3.227zm1.3244 3.0655 1.7516 1.6805-1.7516 1.654zm0 6.3866 1.7516 1.6941-1.7516 1.654z"
     fill-rule="evenodd"
     id="path4" />
  <path
     inkscape:connector-curvature="0"
     id="path3482-5"
     d="m 12.474577,8.9067804 c -1.933001,0 -3.5000014,1.5669976 -3.5000014,3.4999976 0,1.933 1.5670004,3.5 3.5000014,3.5 1.933,0 3.5,-1.567 3.5,-3.5 0,-1.933 -1.567,-3.4999976 -3.5,-3.4999976 z m -2.5000016,2.9687976 5.0000016,0 0,1.0312 -5.0000016,0 0,-1.0312 z"
     style="color:#bebebe;fill:#ef2929"
     class="error" />
</svg>
