<?xml version="1.0" encoding="UTF-8" standalone="no"?>
<svg
   xmlns:dc="http://purl.org/dc/elements/1.1/"
   xmlns:cc="http://creativecommons.org/ns#"
   xmlns:rdf="http://www.w3.org/1999/02/22-rdf-syntax-ns#"
   xmlns:svg="http://www.w3.org/2000/svg"
   xmlns="http://www.w3.org/2000/svg"
   height="16"
   width="16"
   version="1.1"
   id="svg6">
  <metadata
     id="metadata12">
    <rdf:RDF>
      <cc:Work
         rdf:about="">
        <dc:format>image/svg+xml</dc:format>
        <dc:type
           rdf:resource="http://purl.org/dc/dcmitype/StillImage" />
      </cc:Work>
    </rdf:RDF>
  </metadata>
  <defs
     id="defs10" />
  <g
     id="g832"
     transform="translate(2.125001)" />
  <g
     id="g817"
     style="fill:#bebebe;fill-opacity:1">
    <path
       d="M 7.5,1 C 7.223,1 7,1.223 7,1.5 V 6.375 L 5.281,4.875 C 4.969,4.602 4.524,4.655 4.251,4.969 A 0.753,0.753 0 0 0 4.313,6.031 L 6.563,8 4.313,9.969 A 0.753,0.753 0 0 0 4.25,11.031 c 0.274,0.313 0.719,0.367 1.031,0.094 l 1.72,-1.5 V 14.5 c 0,0.277 0.222,0.5 0.5,0.5 0.282,0 0.437,-0.02 0.655,-0.188 l 3.532,-3.156 A 0.78,0.78 0 0 0 11.906,11.281 0.745,0.745 0 0 0 11.938,11 0.723,0.723 0 0 0 11.906,10.844 0.78,0.78 0 0 0 11.688,10.469 L 8.875,7.999 11.688,5.531 a 0.78,0.78 0 0 0 0.218,-0.375 0.712,0.712 0 0 0 0,-0.437 0.78,0.78 0 0 0 -0.218,-0.375 L 8.156,1.187 C 7.957,1.027 7.729,1 7.5,1 Z M 8,3.063 10.094,4.938 8,6.75 Z M 8,9.25 10.094,11.063 8,12.938 Z"
       overflow="visible"
       style="color:#bebebe;overflow:visible;fill:#bebebe;marker:none;fill-opacity:1"
       id="path2" />
    <path
       style="fill:#bebebe;fill-opacity:1"
       id="path2-3"
       d="m 14,6 -2,2 2,2 2,-2 M 4,8 2,6 0,8 2,10 Z" />
  </g>
</svg>
