<?xml version="1.0" encoding="UTF-8" standalone="no"?>
<svg
   xmlns:dc="http://purl.org/dc/elements/1.1/"
   xmlns:cc="http://creativecommons.org/ns#"
   xmlns:rdf="http://www.w3.org/1999/02/22-rdf-syntax-ns#"
   xmlns:svg="http://www.w3.org/2000/svg"
   xmlns="http://www.w3.org/2000/svg"
   height="16"
   width="16"
   version="1.1"
   id="svg6">
  <metadata
     id="metadata12">
    <rdf:RDF>
      <cc:Work
         rdf:about="">
        <dc:format>image/svg+xml</dc:format>
        <dc:type
           rdf:resource="http://purl.org/dc/dcmitype/StillImage" />
        <dc:title />
      </cc:Work>
    </rdf:RDF>
  </metadata>
  <defs
     id="defs10" />
  <path
     style="color:#000000;font-style:normal;font-variant:normal;font-weight:normal;font-stretch:normal;font-size:medium;line-height:normal;font-family:sans-serif;font-variant-ligatures:normal;font-variant-position:normal;font-variant-caps:normal;font-variant-numeric:normal;font-variant-alternates:normal;font-feature-settings:normal;text-indent:0;text-align:start;text-decoration:none;text-decoration-line:none;text-decoration-style:solid;text-decoration-color:#000000;letter-spacing:normal;word-spacing:normal;text-transform:none;writing-mode:lr-tb;direction:ltr;text-orientation:mixed;dominant-baseline:auto;baseline-shift:baseline;text-anchor:start;white-space:normal;shape-padding:0;clip-rule:nonzero;display:inline;overflow:visible;visibility:visible;opacity:0.5;isolation:auto;mix-blend-mode:normal;color-interpolation:sRGB;color-interpolation-filters:linearRGB;solid-color:#000000;solid-opacity:1;vector-effect:none;fill:#bebebe;fill-opacity:1;fill-rule:nonzero;stroke:none;stroke-width:2;stroke-linecap:round;stroke-linejoin:round;stroke-miterlimit:4;stroke-dasharray:none;stroke-dashoffset:0;stroke-opacity:1;color-rendering:auto;image-rendering:auto;shape-rendering:auto;text-rendering:auto;enable-background:accumulate"
     d="M 6.9843747,-7.957381e-4 C 6.4382241,0.00779306 5.9999869,0.45298686 6,0.99920459 V 4.4191266 L 1.6302959,0.04942246 0.69084199,0.99082796 8.0253898,8.3253759 l 1.0722659,1.0722654 0.1953121,0.195313 1.0000012,0.9999997 4.752147,4.752149 0.93944,-0.94142 L 9.4980468,7.9171734 11.707017,5.706223 c 0.390369,-0.3905294 0.390369,-1.0235328 0,-1.4140622 L 7.7070311,0.29217456 C 7.5157079,0.10076226 7.2549781,-0.00494004 6.9843747,-7.957381e-4 Z M 7.9999993,3.4132673 9.5859368,4.9992047 8.0839833,6.5031099 7.999999,6.4191256 Z M 5.9999997,7.6515482 V 8.5851423 L 3.2929684,11.292173 c -0.9816822,0.942509 0.4715544,2.395745 1.4140622,1.414062 l 1.2929689,-1.292969 v 3.585938 c 3.49e-4,0.890637 1.0770367,1.336587 1.7070313,0.707031 l 3.1738272,-3.173828 -1.2402334,-1.240234 -0.1738282,-0.173828 -1.4667969,1.466797 2e-7,-2.9335937 -0.6269533,-0.626954 z"
     id="path835" />
</svg>
