<?xml version="1.0" encoding="UTF-8" standalone="no"?>
<svg
   xmlns:dc="http://purl.org/dc/elements/1.1/"
   xmlns:cc="http://creativecommons.org/ns#"
   xmlns:rdf="http://www.w3.org/1999/02/22-rdf-syntax-ns#"
   xmlns:svg="http://www.w3.org/2000/svg"
   xmlns="http://www.w3.org/2000/svg"
   height="16"
   width="16"
   version="1.1"
   id="svg6">
  <metadata
     id="metadata12">
    <rdf:RDF>
      <cc:Work
         rdf:about="">
        <dc:format>image/svg+xml</dc:format>
        <dc:type
           rdf:resource="http://purl.org/dc/dcmitype/StillImage" />
        <dc:title />
      </cc:Work>
    </rdf:RDF>
  </metadata>
  <defs
     id="defs10" />
  <g
     id="g891"
     style="opacity:0.5">
    <path
       id="path835-6"
       d="M 6.984375,0 C 6.4382246,0.00858842 5.9999871,0.45378212 6,1 6,2.7845052 6,4.5690104 6,6.3535156 l 5.53125,5.5292964 0.175781,-0.175781 c 0.08042,-0.08065 0.146476,-0.174448 0.195313,-0.277343 L 8.9394531,8.4667969 C 9.864079,7.5446402 10.781195,6.632867 11.707031,5.7070312 c 0.390368,-0.3905299 0.390368,-1.0235325 0,-1.4140624 L 7.7070312,0.29296875 C 7.5157079,0.10155695 7.2549779,-0.00414442 6.984375,0 Z M 8,3.4140625 9.5859375,5 8,6.5859375 Z m -2,5.0625 v 0.109375 L 3.2929688,11.292969 c -0.9816664,0.942509 0.4715541,2.395729 1.4140624,1.414062 L 6,11.414062 V 15 c 3.496e-4,0.890637 1.0770367,1.336587 1.7070312,0.707031 L 10.46875,12.945312 9.0546875,11.53125 8,12.585938 v -2.109376 z"
       style="color:#000000;font-style:normal;font-variant:normal;font-weight:normal;font-stretch:normal;font-size:medium;line-height:normal;font-family:sans-serif;font-variant-ligatures:normal;font-variant-position:normal;font-variant-caps:normal;font-variant-numeric:normal;font-variant-alternates:normal;font-feature-settings:normal;text-indent:0;text-align:start;text-decoration:none;text-decoration-line:none;text-decoration-style:solid;text-decoration-color:#000000;letter-spacing:normal;word-spacing:normal;text-transform:none;writing-mode:lr-tb;direction:ltr;text-orientation:mixed;dominant-baseline:auto;baseline-shift:baseline;text-anchor:start;white-space:normal;shape-padding:0;clip-rule:nonzero;display:inline;overflow:visible;visibility:visible;opacity:1;isolation:auto;mix-blend-mode:normal;color-interpolation:sRGB;color-interpolation-filters:linearRGB;solid-color:#000000;solid-opacity:1;vector-effect:none;fill:#bebebe;fill-opacity:1;fill-rule:nonzero;stroke:none;stroke-width:2;stroke-linecap:round;stroke-linejoin:round;stroke-miterlimit:4;stroke-dasharray:none;stroke-dashoffset:0;stroke-opacity:1;color-rendering:auto;image-rendering:auto;shape-rendering:auto;text-rendering:auto;enable-background:accumulate" />
    <path
       id="path3682"
       d="M 1.531,0.469 0.47,1.53 l 14,14 1.062,-1.062 z"
       style="fill:#bebebe;fill-opacity:1;stroke:none" />
  </g>
</svg>
