<?xml version="1.0" encoding="UTF-8" standalone="no"?>
<svg
   xmlns:dc="http://purl.org/dc/elements/1.1/"
   xmlns:cc="http://creativecommons.org/ns#"
   xmlns:rdf="http://www.w3.org/1999/02/22-rdf-syntax-ns#"
   xmlns:svg="http://www.w3.org/2000/svg"
   xmlns="http://www.w3.org/2000/svg"
   height="16"
   width="16"
   version="1.1"
   id="svg6">
  <metadata
     id="metadata12">
    <rdf:RDF>
      <cc:Work
         rdf:about="">
        <dc:format>image/svg+xml</dc:format>
        <dc:type
           rdf:resource="http://purl.org/dc/dcmitype/StillImage" />
      </cc:Work>
    </rdf:RDF>
  </metadata>
  <defs
     id="defs10" />
  <g
     id="g832"
     transform="translate(2.125001)" />
  <path
     d="m 14,6 -2,2 2,2 2,-2 M 4,8 2,6 0,8 2,10 Z"
     id="path2-3"
     style="fill:#bebebe;fill-opacity:1" />
  <path
     style="color:#000000;font-style:normal;font-variant:normal;font-weight:normal;font-stretch:normal;font-size:medium;line-height:normal;font-family:sans-serif;font-variant-ligatures:normal;font-variant-position:normal;font-variant-caps:normal;font-variant-numeric:normal;font-variant-alternates:normal;font-feature-settings:normal;text-indent:0;text-align:start;text-decoration:none;text-decoration-line:none;text-decoration-style:solid;text-decoration-color:#000000;letter-spacing:normal;word-spacing:normal;text-transform:none;writing-mode:lr-tb;direction:ltr;text-orientation:mixed;dominant-baseline:auto;baseline-shift:baseline;text-anchor:start;white-space:normal;shape-padding:0;clip-rule:nonzero;display:inline;overflow:visible;visibility:visible;opacity:1;isolation:auto;mix-blend-mode:normal;color-interpolation:sRGB;color-interpolation-filters:linearRGB;solid-color:#000000;solid-opacity:1;vector-effect:none;fill:#bebebe;fill-opacity:1;fill-rule:nonzero;stroke:none;stroke-width:2;stroke-linecap:round;stroke-linejoin:round;stroke-miterlimit:4;stroke-dasharray:none;stroke-dashoffset:0;stroke-opacity:1;color-rendering:auto;image-rendering:auto;shape-rendering:auto;text-rendering:auto;enable-background:accumulate"
     d="M 6.9838954,2.056859e-4 A 1.0001,1.0001 0 0 0 5.9995204,1.0002056 V 4.5861454 L 4.7065514,3.2931756 a 1.0001,1.0001 0 1 0 -1.414062,1.4140598 l 2.707031,2.70703 v 1.17188 l -2.707031,2.7070296 a 1.0001,1.0001 0 1 0 1.414062,1.41406 l 1.292969,-1.29297 v 3.58594 a 1.0001,1.0001 0 0 0 1.707031,0.70703 l 3.9999996,-4 a 1.0001,1.0001 0 0 0 0,-1.41406 L 9.4135824,8.0002054 11.706551,5.7072354 a 1.0001,1.0001 0 0 0 0,-1.41406 L 7.7065514,0.29317569 A 1.0001,1.0001 0 0 0 6.9838954,2.056859e-4 Z M 7.9995204,3.4142656 9.5854583,5.0002054 7.9995204,6.5861454 Z m 0,5.9999998 1.5859379,1.5859396 -1.5859379,1.58594 z"
     id="path835" />
</svg>
