<?xml version="1.0" encoding="UTF-8" standalone="no"?>
<svg
   xmlns:dc="http://purl.org/dc/elements/1.1/"
   xmlns:cc="http://creativecommons.org/ns#"
   xmlns:rdf="http://www.w3.org/1999/02/22-rdf-syntax-ns#"
   xmlns:svg="http://www.w3.org/2000/svg"
   xmlns="http://www.w3.org/2000/svg"
   height="16"
   width="16"
   version="1.1"
   id="svg6">
  <metadata
     id="metadata12">
    <rdf:RDF>
      <cc:Work
         rdf:about="">
        <dc:format>image/svg+xml</dc:format>
        <dc:type
           rdf:resource="http://purl.org/dc/dcmitype/StillImage" />
      </cc:Work>
    </rdf:RDF>
  </metadata>
  <defs
     id="defs10" />
  <path
     style="color:#000000;font-style:normal;font-variant:normal;font-weight:normal;font-stretch:normal;font-size:medium;line-height:normal;font-family:sans-serif;font-variant-ligatures:normal;font-variant-position:normal;font-variant-caps:normal;font-variant-numeric:normal;font-variant-alternates:normal;font-feature-settings:normal;text-indent:0;text-align:start;text-decoration:none;text-decoration-line:none;text-decoration-style:solid;text-decoration-color:#000000;letter-spacing:normal;word-spacing:normal;text-transform:none;writing-mode:lr-tb;direction:ltr;text-orientation:mixed;dominant-baseline:auto;baseline-shift:baseline;text-anchor:start;white-space:normal;shape-padding:0;clip-rule:nonzero;display:inline;overflow:visible;visibility:visible;opacity:1;isolation:auto;mix-blend-mode:normal;color-interpolation:sRGB;color-interpolation-filters:linearRGB;solid-color:#000000;solid-opacity:1;vector-effect:none;fill:#bebebe;fill-opacity:1;fill-rule:nonzero;stroke:none;stroke-width:2;stroke-linecap:round;stroke-linejoin:round;stroke-miterlimit:4;stroke-dasharray:none;stroke-dashoffset:0;stroke-opacity:1;color-rendering:auto;image-rendering:auto;shape-rendering:auto;text-rendering:auto;enable-background:accumulate"
     d="M 6.9838929,3.7727e-8 A 1.0001,1.0001 0 0 0 5.9995179,1 V 4.58594 L 4.7065489,3.29297 a 1.0001,1.0001 0 1 0 -1.414062,1.41406 l 2.707031,2.70703 v 1.17188 l -2.707031,2.70703 a 1.0001,1.0001 0 1 0 1.414062,1.41406 l 1.292969,-1.29297 V 15 a 1.0001,1.0001 0 0 0 1.707031,0.70703 l 4.0000001,-4 a 1.0001,1.0001 0 0 0 0,-1.41406 L 9.4135799,8 11.706549,5.70703 a 1.0001,1.0001 0 0 0 0,-1.41406 L 7.7065489,0.29297004 A 1.0001,1.0001 0 0 0 6.9838929,3.7727e-8 Z M 7.9995179,3.41406 9.5854559,5 7.9995179,6.58594 Z m 0,6 L 9.5854559,11 7.9995179,12.58594 Z"
     id="path835" />
</svg>
