<?xml version="1.0" encoding="UTF-8" standalone="no"?>
<svg
   xmlns:dc="http://purl.org/dc/elements/1.1/"
   xmlns:cc="http://creativecommons.org/ns#"
   xmlns:rdf="http://www.w3.org/1999/02/22-rdf-syntax-ns#"
   xmlns:svg="http://www.w3.org/2000/svg"
   xmlns="http://www.w3.org/2000/svg"
   xmlns:sodipodi="http://sodipodi.sourceforge.net/DTD/sodipodi-0.dtd"
   xmlns:inkscape="http://www.inkscape.org/namespaces/inkscape"
   width="16"
   height="16"
   version="1.1"
   id="svg4"
   sodipodi:docname="blueberry-tray-active-symbolic.svg"
   inkscape:version="0.92.3 (2405546, 2018-03-11)">
  <metadata
     id="metadata10">
    <rdf:RDF>
      <cc:Work
         rdf:about="">
        <dc:format>image/svg+xml</dc:format>
        <dc:type
           rdf:resource="http://purl.org/dc/dcmitype/StillImage" />
      </cc:Work>
    </rdf:RDF>
  </metadata>
  <defs
     id="defs8" />
  <sodipodi:namedview
     pagecolor="#ffffff"
     bordercolor="#666666"
     borderopacity="1"
     objecttolerance="10"
     gridtolerance="10"
     guidetolerance="10"
     inkscape:pageopacity="0"
     inkscape:pageshadow="2"
     inkscape:window-width="1698"
     inkscape:window-height="1015"
     id="namedview6"
     showgrid="false"
     inkscape:zoom="41.7193"
     inkscape:cx="-0.78123431"
     inkscape:cy="6.6460808"
     inkscape:window-x="-55"
     inkscape:window-y="170"
     inkscape:window-maximized="0"
     inkscape:current-layer="svg4" />
  <path
     style="fill:#5c616c"
     d="M 8.5,0 C 5.45,0 3,2.68 3,6 V 10 C 3,13.32 5.45,16 8.5,16 11.55,16 14,13.32 14,10 V 6 C 14,2.68 11.55,0 8.5,0 Z M 8,1.29 12.24,5.53 9.3,8 12.24,10.47 8,14.71 V 9.09 L 5.57,11.13 4.93,10.37 7.75,8 4.93,5.63 5.57,4.87 8,6.91 Z M 9,3.71 V 6.95 L 10.76,5.47 Z M 9,9.05 V 12.29 L 10.76,10.53 Z"
     id="path2" />
  <path
     inkscape:connector-curvature="0"
     d="m 11.512714,8 3,-2 v 4 z"
     style="fill:#00ff00;fill-opacity:1;fill-rule:evenodd;stroke:none"
     id="path893"
     class="success" />
  <path
     inkscape:connector-curvature="0"
     d="m 5.5127119,8 -3,-2 v 4 z"
     style="fill:#00ff00;fill-opacity:1;fill-rule:evenodd;stroke:none"
     id="path895"
     class="success" />
</svg>
